<?xml version="1.0" standalone="no"?>
<!DOCTYPE svg PUBLIC "-//W3C//DTD SVG 20010904//EN"
 "http://www.w3.org/TR/2001/REC-SVG-20010904/DTD/svg10.dtd">
<svg version="1.0" xmlns="http://www.w3.org/2000/svg"
 width="80.000000pt" height="80.000000pt" viewBox="0 0 80.000000 80.000000"
 preserveAspectRatio="xMidYMid meet">

<g transform="translate(0.000000,80.000000) scale(0.100000,-0.100000)"
fill="#000000" stroke="none">
<path d="M332 554 c-15 -11 -22 -25 -22 -50 0 -22 -6 -37 -15 -40 -8 -4 -15
-10 -15 -15 0 -5 7 -9 15 -9 12 0 15 -17 15 -95 0 -78 3 -95 15 -95 12 0 15
17 15 95 0 88 1 95 20 95 11 0 20 5 20 10 0 6 -9 10 -20 10 -16 0 -20 7 -20
35 0 23 5 37 15 40 51 16 50 16 35 25 -21 13 -32 12 -58 -6z"/>
<path d="M154 499 c-135 -103 -136 -113 -21 -201 109 -86 107 -85 107 -51 0
23 -13 38 -75 83 -41 30 -74 57 -74 60 0 3 33 30 74 60 60 45 74 60 75 83 0
15 -2 27 -4 27 -2 0 -39 -27 -82 -61z"/>
<path d="M560 533 c0 -23 13 -38 75 -83 41 -30 74 -57 74 -60 0 -3 -33 -30
-74 -60 -61 -45 -74 -60 -75 -83 0 -33 0 -33 90 36 130 100 131 112 18 199
-110 86 -108 85 -108 51z"/>
<path d="M486 449 c-23 -18 -27 -18 -32 -5 -15 40 -24 7 -24 -89 0 -87 3 -105
15 -105 12 0 15 15 15 73 0 82 16 117 56 117 15 0 24 6 24 15 0 21 -23 19 -54
-6z"/>
</g>
</svg>
